<?xml version="1.0" encoding="UTF-8"?>
<svg width="102px" height="44px" viewBox="0 0 102 44" version="1.1" xmlns="http://www.w3.org/2000/svg" xmlns:xlink="http://www.w3.org/1999/xlink">
    <!-- Generator: Sketch 55.1 (78136) - https://sketchapp.com -->
    <title>LOGO</title>
    <desc>Created with Sketch.</desc>
    <defs>
        <linearGradient x1="21.7191895%" y1="25.9842397%" x2="89.0612752%" y2="74.4016669%" id="linearGradient-1">
            <stop stop-color="#00D1FF" offset="0%"></stop>
            <stop stop-color="#1748E6" offset="100%"></stop>
        </linearGradient>
    </defs>
    <g id="组件" stroke="none" stroke-width="1" fill="none" fill-rule="evenodd">
        <g id="Logo区-/-展开" transform="translate(-24.000000, -8.000000)">
            <g id="Logo">
                <g id="LOGO" transform="translate(24.000000, 8.000000)">
                    <path d="M76.9584,0.2196 C71.246,0.232 65.8944,3.0872 62.6864,7.7644 L62.6864,7.7644 L62.6856,7.7648 C59.9252,6.92 56.8324,7.1968 54.154,8.7864 L54.154,8.7864 C52.1828,9.9572 50.728,11.6668 49.8664,13.6156 L49.8664,13.6156 C49.4124,14.6424 50.154,15.7988 51.2772,15.7988 L51.2772,15.7988 C51.8528,15.7988 52.3876,15.4996 52.6872,15.0072 L52.6872,15.0072 C53.4264,13.7928 54.5228,12.7784 55.912,12.1408 L55.912,12.1408 C58.5264,10.9424 61.4756,11.3976 63.5848,13.0684 L63.5848,13.0684 C63.9516,13.3588 64.4836,13.2468 64.7168,12.8408 L64.7168,12.8408 C67.7172,7.6216 73.9584,4.8696 80.036,6.534 L80.036,6.534 C85.2988,7.9752 88.9808,12.3288 89.8236,17.3792 L89.8236,17.3792 C89.8776,17.7024 90.1248,17.9588 90.4436,18.034 L90.4436,18.034 C93.014,18.6384 95.2768,20.4784 96.2772,23.2608 L96.2772,23.2608 C97.5152,26.7028 96.248,30.6136 93.234,32.686 L93.234,32.686 C91.4144,33.9376 89.32,34.3492 87.3552,34.0496 L87.3552,34.0496 C86.5788,33.9308 85.826,34.4396 85.6768,35.2112 L85.6768,35.2112 C85.5344,35.9532 85.9784,36.6904 86.7064,36.8928 L86.7064,36.8928 C90.366,37.9116 94.468,37.1292 97.568,34.3808 L97.568,34.3808 C100.0188,32.208 101.326,28.862 101.3344,25.5468 L101.3344,25.5468 L101.3344,25.4828 C101.3288,23.2496 100.7332,21.0336 99.5004,19.2036 L99.5004,19.2036 C98.1248,17.1624 96.242,15.7132 94.1516,14.8804 L94.1516,14.8804 C93.1172,8.348 88.3816,2.7 81.5888,0.84 L81.5888,0.84 C80.0672,0.4232 78.5372,0.2228 77.0324,0.2196 L77.0324,0.2196 L76.9584,0.2196 Z" id="Fill-1" fill="url(#linearGradient-1)"></path>
                    <path d="M15.2672734,23.8517063 L16.6982374,23.8517063 C17.4733932,23.90976 17.8977397,23.5642794 17.9732863,22.8152645 L18.5913213,19.2752048 L16.5033434,19.2752048 C16.250584,19.2752048 16.0339904,19.4582973 15.9901895,19.7099988 L15.2672734,23.8517063 Z M12.3410503,25.6651749 L13.5875683,18.5233481 C13.6948605,17.9091152 14.2232844,17.4613301 14.8405158,17.4613301 L21.5175443,17.4613301 L20.5374485,23.0746794 C20.2915204,24.8016764 19.2712402,25.6651749 17.4758042,25.6651749 L12.3410503,25.6651749 Z M5.58887705,29.6266316 L5.43617659,30.5010913 L15.2009692,30.5010913 L15.4870817,28.86016 L6.49302452,28.86016 C6.04738028,28.86016 5.66603097,29.1833122 5.58887705,29.6266316 L5.58887705,29.6266316 Z M4.81814157,34.041557 L13.5727001,34.041557 C14.2461895,34.041557 14.6432107,33.6960764 14.7637637,33.0051152 L14.8843167,32.31456 L5.1199259,32.31456 L4.81814157,34.041557 Z M1.54030562,35.9410913 L2.83303558,28.5353839 C3.00060424,27.5748585 3.8267941,26.874154 4.79242359,26.874154 L18.6958006,26.874154 L17.6256918,33.0051152 C17.3295333,35.0199451 16.1485158,35.9979272 14.0830411,35.9410913 L1.54030562,35.9410913 Z M11.4176144,26.6151451 C9.29909641,26.2128287 7.81147244,25.406166 6.95715355,24.1971869 C5.68933788,25.3493301 3.80388903,26.1831928 1.30120885,26.7016167 L1.57205124,25.146751 C3.41168995,24.5723033 4.7080365,23.7372227 5.46109088,22.6427272 L1.92567336,22.6427272 L2.09284018,21.6834197 C2.16155539,21.2892227 2.50071115,21.0017958 2.89692866,21.0017958 L6.08394802,21.0017958 C6.19967889,20.6567212 6.28366415,20.3408764 6.33429641,20.0522316 L6.49985585,19.1022615 L5.573607,19.1022615 C4.78961069,19.7363869 3.70945585,20.1387033 2.33274065,20.3112406 L2.57384664,18.9293182 C3.76531207,18.5274078 4.56216737,17.6639093 4.96159963,16.3388227 L7.48718488,16.3388227 C7.3602024,16.742357 7.18298949,17.1158496 6.95434065,17.4613301 L12.6790006,17.4613301 L12.5114319,18.4206376 C12.4423148,18.8148346 12.1031591,19.1022615 11.7069416,19.1022615 L9.19341161,19.1022615 L9.08772682,19.706751 C9.01740424,20.1098794 8.91292498,20.5418316 8.77750378,21.0017958 L12.4812936,21.0017958 L12.3141268,21.9611033 C12.2454116,22.3548943 11.9062559,22.6427272 11.5100383,22.6427272 L8.82813604,22.6427272 C9.2906577,23.8517063 10.24383,24.658369 11.6892605,25.0610913 L11.4176144,26.6151451 Z" id="Fill-3" fill="#303030"></path>
                    <path d="M37.827802,35.4230328 C37.8338297,34.0995701 37.6710831,32.7757015 37.3423753,31.4510209 L39.7835735,31.4510209 C40.2256011,32.7757015 40.4711274,34.0995701 40.5213578,35.4230328 L37.827802,35.4230328 Z M31.1572029,33.6095642 C31.1093836,32.918603 31.0382573,32.2000358 30.9446278,31.4510209 L33.5541983,31.4510209 C33.7539145,31.912609 33.9086241,32.6315821 34.0195329,33.6095642 L31.1572029,33.6095642 Z M28.3631864,36.113994 C26.4447864,36.1708299 25.6644066,35.3365612 26.022449,33.6095642 L26.3993781,31.4510209 L29.261708,31.4510209 L28.9904638,33.0050746 C28.7827108,33.8689791 29.1612472,34.2708896 30.1256712,34.2140537 L33.7454758,34.2140537 C34.4093209,34.2708896 34.7621394,34.0130985 34.8071458,33.4370269 L34.8826924,33.0050746 L37.2395034,33.0050746 L37.1189504,33.6960358 C36.8826665,35.3649791 35.9294942,36.1708299 34.2558168,36.113994 L28.3631864,36.113994 Z M24.5589357,18.842806 L24.6963661,18.0568478 C24.7650813,17.6622448 25.1042371,17.3748179 25.5004546,17.3748179 L28.0139845,17.3748179 L28.1799458,16.4252537 L30.7895163,16.4252537 L30.623555,17.3748179 L33.6538555,17.3748179 L33.3978813,18.842806 L30.3675808,18.842806 L30.2016195,19.7927761 L33.0639495,19.7927761 L32.8075735,21.2607642 L29.9456453,21.2607642 L29.7796841,22.2107343 L32.9783569,22.2107343 L32.8413283,22.9970985 C32.7722112,23.3912955 32.4330555,23.6787224 32.036838,23.6787224 L29.5237099,23.6787224 L29.3577486,24.6286925 L36.176226,24.6286925 L36.3273191,23.765194 L33.2122297,23.765194 L33.4682039,22.297206 L36.5828914,22.297206 L36.7645246,21.2607642 L33.9857781,21.2607642 L34.2421541,19.7927761 L37.0204988,19.7927761 L37.1860582,18.842806 L34.1553559,18.842806 L34.2927864,18.0568478 C34.3615016,17.6622448 34.7006573,17.3748179 35.0968748,17.3748179 L37.4424343,17.3748179 L37.6079937,16.4252537 L40.3015495,16.4252537 L40.1355882,17.3748179 L43.3346629,17.3748179 L43.0782868,18.842806 L39.8792122,18.842806 L39.7136527,19.7927761 L42.5759827,19.7927761 L42.3200085,21.2607642 L39.4576785,21.2607642 L39.2764472,22.297206 L42.5595071,22.297206 L42.4224785,23.0831642 C42.3537633,23.4777672 42.0146076,23.765194 41.61839,23.765194 L39.020473,23.765194 L38.8701836,24.6286925 L40.8062647,24.6286925 L40.2179661,27.9966209 C39.9314518,29.954209 38.8963034,30.9041791 37.1113154,30.8465313 L23.2216011,30.8465313 L23.4779771,29.3785433 L36.1050997,29.3785433 C36.7114813,29.436191 37.1085025,29.0907104 37.2957615,28.3425075 L24.332296,28.3425075 L24.5585338,27.0470567 L37.5219993,27.0470567 L37.6875587,26.0966806 L24.2193781,26.0966806 L24.3564066,25.3107224 C24.4251218,24.9165254 24.7642776,24.6286925 25.160897,24.6286925 L26.7481781,24.6286925 L26.9141394,23.6787224 L23.4627071,23.6787224 L23.7190831,22.2107343 L27.1705154,22.2107343 L27.3360748,21.2607642 L24.4741467,21.2607642 L24.7301209,19.7927761 L27.592049,19.7927761 L27.7580103,18.842806 L24.5589357,18.842806 Z M21.244532,35.4230328 C21.9758868,34.4438328 22.6839347,33.1211821 23.3690776,31.4510209 L25.8102758,31.4510209 C25.2669836,32.9486448 24.6155956,34.2708896 23.8541025,35.4230328 L21.244532,35.4230328 Z" id="Fill-5" fill="#303030"></path>
                    <path d="M47.2208896,19.706751 L47.4937412,18.142954 C47.5628582,17.748757 47.9016122,17.4613301 48.2982315,17.4613301 L63.5224675,17.4613301 L63.2496159,19.0247212 C63.1809006,19.4193242 62.8417449,19.706751 62.4455274,19.706751 L47.2208896,19.706751 Z M44.4670573,25.8377122 L44.7403108,24.2743212 C44.809026,23.8797182 45.1481818,23.5922913 45.5443993,23.5922913 L64.2200675,23.5922913 L63.9472159,25.1560884 C63.8785006,25.5502854 63.5393449,25.8377122 63.1431274,25.8377122 L53.81112,25.8377122 C52.1804398,28.4282078 50.2262758,30.6171988 47.9514407,32.4010316 C51.8794592,32.4010316 55.2211882,32.2280884 57.9754223,31.8826078 C57.7990131,30.9626794 57.5201338,29.9826675 57.1411956,28.9466316 L60.0031237,28.9466316 C60.8646758,31.077163 61.3484951,33.294166 61.4517688,35.5960167 L58.3370813,35.5960167 C58.3708361,35.0775928 58.3398942,34.6164107 58.2418444,34.2140943 C54.2989578,34.6164107 50.1941283,34.8189899 45.9301688,34.8189899 L44.2468472,34.8189899 L44.6683808,32.4010316 C46.927544,30.3866078 48.6852066,28.1988346 49.9389578,25.8377122 L44.4670573,25.8377122 Z" id="Fill-7" fill="#303030"></path>
                    <path d="M82.2216837,23.0167881 L82.1011307,23.7077493 L74.3568063,23.7077493 L74.3877482,23.5299343 C74.439586,23.2331701 74.6951583,23.0167881 74.9933261,23.0167881 L82.2216837,23.0167881 Z M81.78488,25.5212179 L74.0405556,25.5212179 L74.1607067,24.8306627 L81.905433,24.8306627 L81.78488,25.5212179 Z M80.5271104,27.4211582 L73.708633,27.4211582 L73.844456,26.6441313 L81.5891823,26.6441313 C81.4316597,27.220203 81.0772339,27.4792119 80.5271104,27.4211582 L80.5271104,27.4211582 Z M79.235586,30.9616239 C78.4395344,31.572609 77.4080026,32.0727642 76.3001206,32.4811701 C74.5380376,31.8222806 73.5430735,31.2076418 73.3441611,31.0789493 C73.4024284,31.0432239 73.459892,31.0066866 73.5117298,30.9616239 L79.235586,30.9616239 Z M71.5559583,20.9443104 L71.8424726,19.3037851 L86.2369021,19.3037851 L85.9507897,20.9443104 L79.1323123,20.9443104 C79.0350662,21.1753075 78.8783473,21.4343164 78.6597445,21.7217433 L85.057492,21.7217433 L84.2891676,26.1257075 C84.0219418,27.9688119 83.1137759,28.8323104 81.5634643,28.716203 L76.1763528,28.716203 C75.9573482,29.0048478 75.7495952,29.2342209 75.5502809,29.4067582 L83.3793943,29.4067582 C83.3388081,29.8094806 82.9622809,31.762603 79.3778385,33.4144955 C80.7019123,33.7319642 82.2373556,34.0015284 83.9817574,34.156609 L83.4834717,35.9152716 C80.6267676,35.7252776 78.2478551,35.1447403 76.3704431,34.4809791 C74.2981371,35.0448716 71.6150293,35.4938746 68.1370754,35.7110687 L68.4087215,34.156609 C68.8937464,34.1070806 69.441057,34.0417194 70.0430182,33.9617433 C70.9921722,33.8269612 72.259586,33.6130149 73.5937058,33.2902687 C72.2342699,32.5911881 71.4655436,32.0017194 71.32088,31.8864239 C70.705256,32.0914388 70.0068524,32.2729075 69.215221,32.4296119 L69.4864653,30.8751522 C71.0918293,30.3567284 72.339151,29.6381612 73.2304394,28.716203 L70.8732265,28.716203 L71.831221,23.2278925 C71.9831178,22.3566806 72.7325556,21.7217433 73.6077703,21.7217433 L75.7978164,21.7217433 C75.9597593,21.4343164 76.0891528,21.1753075 76.1855952,20.9443104 L71.5559583,20.9443104 Z M70.4567963,16.6263307 L87.1248553,16.6263307 L86.7784664,18.6127427 L71.5421751,18.6127427 L69.8693014,28.1981039 C69.4698691,31.7686113 67.6483134,34.3290651 64.4034286,35.8839307 L64.7799558,33.7249815 C65.7926009,32.7465934 66.4504184,31.2205516 66.7570249,29.148074 L68.6794433,18.132886 C68.8317419,17.261674 69.5807779,16.6263307 70.4567963,16.6263307 Z" id="Fill-9" fill="#303030"></path>
                    <path d="M1.90698765,39.150123 C2.28150562,39.150123 2.62628719,39.2463379 2.93972498,39.4391737 L2.82077935,40.115926 C2.46514802,39.8695021 2.13402912,39.7468991 1.82541346,39.7468991 C1.63775263,39.7468991 1.48465032,39.7842484 1.3657047,39.857729 C1.24756276,39.9324275 1.17724018,40.0327021 1.15554065,40.156523 C1.12982267,40.3047021 1.20376184,40.4427319 1.37856369,40.5685827 C1.42678488,40.6063379 1.62127705,40.7118901 1.96003097,40.8852394 C2.24895631,41.0378842 2.44746691,41.2067678 2.55355355,41.394326 C2.66044387,41.5810722 2.69218949,41.8043558 2.64597751,42.0666125 C2.58690654,42.4060036 2.41973972,42.6796275 2.14568258,42.8874842 C1.87162544,43.0957469 1.54653419,43.2000812 1.16839963,43.2000812 C0.921667834,43.2000812 0.715120369,43.1720693 0.546346175,43.1168573 C0.379179355,43.0612394 0.197546175,42.9646185 -0.000160737327,42.8290245 L0.131643871,42.0775737 C0.482453088,42.42752 0.838888111,42.603711 1.20255631,42.603711 C1.38418949,42.603711 1.53849733,42.5627081 1.66427429,42.482326 C1.79005124,42.4011319 1.86559779,42.2935499 1.88850286,42.1595797 C1.92065032,41.9772991 1.84912221,41.8283081 1.67512406,41.7138245 C1.52885309,41.6228872 1.33918304,41.5144931 1.10611392,41.3886424 C0.827234654,41.2477707 0.630733272,41.081729 0.51299318,40.8933588 C0.396860461,40.7058006 0.359489032,40.4873887 0.403691797,40.2393409 C0.461557235,39.9064454 0.627920369,39.6425648 0.901977512,39.4460752 C1.17804387,39.2483678 1.51197567,39.150123 1.90698765,39.150123 Z M5.14230857,39.2020466 L6.13486157,40.7573182 L7.67110857,39.2020466 L8.33455189,39.2020466 L7.64579244,43.1484824 L6.90198046,43.1484824 L7.38539797,40.3761122 L7.36369843,40.3761122 L6.00787908,41.76656 L5.90380166,41.76656 L5.03340903,40.3761122 L5.01170949,40.3761122 L4.52829198,43.1484824 L3.78448,43.1484824 L4.47323945,39.2020466 L5.14230857,39.2020466 Z M10.4202393,41.6089218 L11.662337,41.6089218 L11.2858098,40.0463427 L10.4202393,41.6089218 Z M11.8106171,39.2019248 L12.8204494,43.1483606 L12.0356494,43.1483606 L11.8037858,42.1874293 L10.0931388,42.1874293 L9.55386507,43.1483606 L8.77469088,43.1483606 L11.0499277,39.2019248 L11.8106171,39.2019248 Z M15.5616236,40.8854018 C15.7561158,40.8854018 15.9184605,40.8358734 16.0462466,40.7355988 C16.1744347,40.6353242 16.2535978,40.4993242 16.283736,40.325569 C16.3154817,40.1449122 16.283736,40.0101301 16.1893029,39.9195988 C16.0952715,39.8310973 15.9457858,39.7864406 15.7424531,39.7864406 L15.2799314,39.7864406 L15.0878503,40.8854018 L15.5616236,40.8854018 Z M16.0233416,39.2022496 C16.3850006,39.2022496 16.6618706,39.3037421 16.8535499,39.509569 C17.0460328,39.7149899 17.1119351,39.9829301 17.0552752,40.311766 C17.0158946,40.5358615 16.9254798,40.7315391 16.7828254,40.8979869 C16.6417784,41.0648406 16.4509029,41.1971869 16.2110024,41.2921839 C16.3235185,41.3595749 16.4163443,41.4529481 16.4910872,41.5694615 C16.5666337,41.6863809 16.6514227,41.8828704 16.7434448,42.1597421 C16.8949397,42.6379749 17.0118761,42.9676227 17.094254,43.1482794 L16.2652512,43.1482794 C16.2238614,43.0618078 16.1708181,42.9237779 16.106925,42.7337839 C15.9666817,42.3127928 15.8593895,42.0306436 15.7858522,41.8836824 C15.711913,41.7379391 15.6355628,41.6348227 15.5547923,41.5731152 C15.4720125,41.5126257 15.3731591,41.4817719 15.2530079,41.4817719 L14.9841747,41.4817719 L14.6932402,43.1482794 L13.9494282,43.1482794 L14.6381876,39.2022496 L16.0233416,39.2022496 Z M21.8596335,39.2020466 L21.7551543,39.7976048 L20.388887,39.7976048 L19.804205,43.1484824 L19.0611967,43.1484824 L19.6458787,39.7976048 L18.2792096,39.7976048 L18.3836888,39.2020466 L21.8596335,39.2020466 Z M23.6357408,41.5046687 L23.5188044,42.1708657 L22.0922606,42.1708657 L22.2091971,41.5046687 L23.6357408,41.5046687 Z M27.3822466,39.150123 C27.6000457,39.150123 27.8094061,39.1756991 28.0099259,39.2264454 C28.2104457,39.2771916 28.4214135,39.3636633 28.6428291,39.4866722 L28.5178559,40.2044275 C28.3056826,40.0643678 28.1031535,39.9640931 27.912278,39.9027916 C27.7222061,39.8398663 27.5188734,39.8082006 27.2994669,39.8082006 C27.0262135,39.8082006 26.7690337,39.8658484 26.5283296,39.9831737 C26.2872236,40.0992812 26.0891148,40.2616693 25.9291812,40.4735857 C25.7708549,40.6834722 25.6683849,40.917717 25.6233784,41.175914 C25.5771665,41.4402006 25.5968568,41.6764752 25.6816457,41.8855499 C25.7660328,42.0954364 25.9082853,42.2557946 26.1088052,42.3702782 C26.3101287,42.4843558 26.5468144,42.5415976 26.8216752,42.5415976 C27.0342503,42.5415976 27.2403959,42.5099319 27.4437287,42.4474125 C27.6462577,42.386111 27.9078577,42.2736573 28.227725,42.1112693 L28.1031535,42.8290245 C27.8299001,42.9629946 27.5843738,43.0579916 27.3653692,43.1148275 C27.1463646,43.1712573 26.8968199,43.2000812 26.6179406,43.2000812 C26.2120789,43.2000812 25.8632789,43.1168573 25.5723443,42.9508155 C25.2814098,42.7851797 25.0732549,42.5468752 24.9446651,42.2342782 C24.8156734,41.9224931 24.7843296,41.5818842 24.8490264,41.2096096 C24.9189471,40.8129767 25.0752641,40.455723 25.3175757,40.1390663 C25.5627001,39.8232215 25.8632789,39.5792334 26.2225268,39.4075081 C26.5825784,39.2357827 26.968348,39.150123 27.3822466,39.150123 Z M30.8650227,39.2020466 L30.2803406,42.5529242 L32.1469029,42.5529242 L32.0432273,43.1484824 L29.4328531,43.1484824 L30.1212107,39.2020466 L30.8650227,39.2020466 Z M34.0758312,41.1759952 C34.0308247,41.4382519 34.0473003,41.6737146 34.1268653,41.8827893 C34.204421,42.0922699 34.337833,42.253846 34.5246901,42.3683296 C34.7115473,42.484437 34.9357759,42.5416788 35.1945629,42.5416788 C35.5899768,42.5416788 35.9367676,42.4137982 36.2361408,42.1596609 C36.5347104,41.9055236 36.7187547,41.5779057 36.7882735,41.1759952 C36.8344855,40.9137385 36.8176081,40.6786818 36.7404542,40.4683893 C36.6616929,40.2576907 36.5286828,40.0961146 36.3406201,39.982037 C36.1529593,39.8655236 35.9275252,39.8082818 35.666327,39.8082818 C35.4063344,39.8082818 35.16121,39.8655236 34.9325611,39.9832549 C34.7035104,40.0993624 34.5158496,40.2597206 34.3675694,40.4683893 C34.2188874,40.6770579 34.1220431,40.9133325 34.0758312,41.1759952 Z M35.7872818,39.1502042 C36.1863123,39.1502042 36.5298883,39.234646 36.8188136,39.4035296 C37.107739,39.5720072 37.3187067,39.8143713 37.4533242,40.13184 C37.5859325,40.4497146 37.6204911,40.797631 37.5545888,41.1759952 C37.489892,41.5454281 37.3383971,41.8876609 37.0988984,42.2035057 C36.8593998,42.5193504 36.5624376,42.7633385 36.210021,42.9391236 C35.8572026,43.1128788 35.4798717,43.1997564 35.0748136,43.1997564 C34.6769888,43.1997564 34.330198,43.110849 34.0344413,42.933846 C33.7398901,42.756437 33.5285206,42.5132609 33.4007344,42.2035057 C33.2729482,41.8937504 33.2416044,41.5515176 33.3075067,41.1759952 C33.3701943,40.8146818 33.5204837,40.4740728 33.7575712,40.1566042 C33.9954625,39.8379176 34.2888081,39.5910878 34.6396173,39.4140848 C34.989221,39.2387057 35.3729814,39.1502042 35.7872818,39.1502042 Z M39.9892771,39.2020466 L39.5886393,41.4986197 C39.5472494,41.7336764 39.5492586,41.9204227 39.5934614,42.0604824 C39.6376641,42.2005421 39.7296863,42.3146197 39.8703314,42.405963 C40.0109766,42.4952764 40.1837692,42.541963 40.3923259,42.541963 C40.6201711,42.541963 40.820289,42.4981182 40.9934835,42.4128645 C41.1686872,42.3263928 41.3037065,42.2102854 41.4041674,42.0625122 C41.5034227,41.9135212 41.5749508,41.7101301 41.6215646,41.4478734 L42.0133618,39.2020466 L42.7571738,39.2020466 L42.3472936,41.5461182 C42.2552715,42.0775331 42.0290337,42.4863451 41.6685803,42.7713361 C41.3089305,43.0571391 40.8452033,43.2000406 40.2773987,43.2000406 C39.9213655,43.2000406 39.6227959,43.1350854 39.384101,43.0055809 C39.1454061,42.8756704 38.9782393,42.6856764 38.8830024,42.4408764 C38.7889711,42.1944525 38.7700844,41.9066197 38.8279499,41.5753481 L39.2426522,39.2020466 L39.9892771,39.2020466 Z M45.2046006,42.5528836 C45.6160881,42.5528836 45.967701,42.4258149 46.2606448,42.1716776 C46.5531867,41.9187582 46.7364273,41.5870806 46.8079554,41.1758328 C46.8826982,40.751594 46.8147867,40.4146388 46.6074356,40.167809 C46.4004863,39.9205731 46.0846374,39.7975642 45.6602909,39.7975642 L44.8947794,39.7975642 L44.4145766,42.5528836 L45.2046006,42.5528836 Z M45.8664365,39.202006 C46.2666724,39.202006 46.6082393,39.2840119 46.891137,39.4528955 C47.173231,39.6205612 47.37576,39.854806 47.4955093,40.1596896 C47.6144549,40.4625433 47.6409766,40.8035582 47.5750743,41.1819224 C47.5071628,41.568 47.3620973,41.9106388 47.1362614,42.2094328 C46.9108273,42.5074149 46.6231075,42.7396299 46.275513,42.9032358 C45.926713,43.0672478 45.5465692,43.1484418 45.1334743,43.1484418 L43.5666872,43.1484418 L44.2554466,39.202006 L45.8664365,39.202006 Z M52.462132,40.8398113 C52.6586334,40.8398113 52.8217818,40.7919069 52.9523808,40.6960979 C53.0829799,40.600289 53.1637504,40.4663188 53.1938887,40.2945934 C53.2208122,40.1415427 53.1894684,40.0217815 53.0998573,39.9316561 C53.0114518,39.8419367 52.8808527,39.797686 52.7104712,39.797686 L52.1760195,39.797686 L51.9943864,40.8398113 L52.462132,40.8398113 Z M52.3371587,42.5530054 C52.5887126,42.5530054 52.7864195,42.503477 52.9326905,42.4068561 C53.0781578,42.3094233 53.1665633,42.1677397 53.1999163,41.9781516 C53.2284472,41.8117039 53.1894684,41.6781397 53.0781578,41.5819248 C52.967249,41.4848979 52.8041006,41.4361815 52.5895163,41.4361815 L51.8903089,41.4361815 L51.6958168,42.5530054 L52.3371587,42.5530054 Z M52.9463532,39.2021278 C53.2991716,39.2021278 53.5696122,39.2950949 53.7596841,39.483871 C53.9485504,39.6722412 54.0192748,39.9077039 53.9694463,40.1894472 C53.9377006,40.3701039 53.8641633,40.5296501 53.7460214,40.66768 C53.6302905,40.8057099 53.4767864,40.9141039 53.2867145,40.9957039 L53.2806868,41.0293994 C53.5370629,41.0915128 53.7247237,41.2137099 53.8428656,41.3984263 C53.9606057,41.5819248 53.9975753,41.796277 53.9545781,42.0435128 C53.9160011,42.2619248 53.8267919,42.4571964 53.6885578,42.6301397 C53.5487163,42.803083 53.3747182,42.9317755 53.1657596,43.0182472 C52.9559974,43.1055307 52.7217228,43.1485636 52.4589172,43.1485636 L50.8475255,43.1485636 L51.5366868,39.2021278 L52.9463532,39.2021278 Z M56.4715237,39.2020466 L56.0708859,41.4986197 C56.029496,41.7336764 56.0315053,41.9204227 56.075708,42.0604824 C56.1199108,42.2005421 56.2119329,42.3146197 56.3525781,42.405963 C56.4932232,42.4952764 56.6660159,42.541963 56.8745725,42.541963 C57.1024177,42.541963 57.3025357,42.4981182 57.4757301,42.4128645 C57.6509338,42.3263928 57.7859532,42.2102854 57.886414,42.0625122 C57.9856693,41.9135212 58.0571974,41.7101301 58.1038112,41.4478734 L58.4956085,39.2020466 L59.2394205,39.2020466 L58.8295403,41.5461182 C58.7375182,42.0775331 58.5112804,42.4863451 58.1508269,42.7713361 C57.7911771,43.0571391 57.32745,43.2000406 56.7596453,43.2000406 C56.404014,43.2000406 56.1050426,43.1350854 55.8663476,43.0055809 C55.6276527,42.8756704 55.4604859,42.6856764 55.365249,42.4408764 C55.2712177,42.1944525 55.2523311,41.9066197 55.3101965,41.5753481 L55.7253006,39.2020466 L56.4715237,39.2020466 Z M61.4981014,39.2020466 L60.8093419,43.1484824 L60.0659318,43.1484824 L60.7542894,39.2020466 L61.4981014,39.2020466 Z M63.7831834,39.2020466 L63.1989032,42.5529242 L65.0654654,42.5529242 L64.961388,43.1484824 L62.3510138,43.1484824 L63.0393714,39.2020466 L63.7831834,39.2020466 Z M67.7859447,42.5528836 C68.1974323,42.5528836 68.549447,42.4258149 68.8423908,42.1716776 C69.1349327,41.9187582 69.3177714,41.5870806 69.3892995,41.1758328 C69.4644442,40.751594 69.3965327,40.4146388 69.1887797,40.167809 C68.9818304,39.9205731 68.6663834,39.7975642 68.2420369,39.7975642 L67.4765253,39.7975642 L66.9959207,42.5528836 L67.7859447,42.5528836 Z M68.4481825,39.202006 C68.8484184,39.202006 69.1899853,39.2840119 69.4728829,39.4528955 C69.754977,39.6205612 69.9571041,39.854806 70.0772553,40.1596896 C70.1962009,40.4625433 70.2223207,40.8035582 70.1568203,41.1819224 C70.0889088,41.568 69.9434415,41.9106388 69.7176055,42.2094328 C69.4925733,42.5074149 69.2048535,42.7396299 68.8568571,42.9032358 C68.5080571,43.0672478 68.1283152,43.1484418 67.7152203,43.1484418 L66.1484332,43.1484418 L66.8371926,39.202006 L68.4481825,39.202006 Z M72.6347469,39.2020466 L71.9459875,43.1484824 L71.2021755,43.1484824 L71.8905331,39.2020466 L72.6347469,39.2020466 Z M74.8284096,39.2020466 L76.6342935,41.9561481 L77.1144962,39.2020466 L77.8418326,39.2020466 L77.1530732,43.1484824 L76.5145441,43.1484824 L74.7030345,40.3481003 L74.2147948,43.1484824 L73.4874584,43.1484824 L74.1762179,39.2020466 L74.8284096,39.2020466 Z M81.3936855,39.150123 C81.867057,39.150123 82.318327,39.2597349 82.7462901,39.4748991 L82.6245316,40.1735737 C82.2001851,39.9303976 81.7629795,39.8082006 81.3109058,39.8082006 C81.0300173,39.8082006 80.7704265,39.8658484 80.5317316,39.9819558 C80.2934385,40.0960334 80.0957316,40.2608573 79.9374053,40.4776454 C79.7790791,40.6928096 79.6774127,40.9339558 79.6307989,41.1990543 C79.5604763,41.6017767 79.6348173,41.9265528 79.8530182,42.1713528 C80.0720229,42.4189946 80.3955067,42.5415976 80.8238717,42.5415976 C80.9416118,42.5415976 81.0553335,42.5310424 81.1666441,42.5099319 C81.2775528,42.4904454 81.4121703,42.4494424 81.5713003,42.3909827 L81.6866293,41.7357469 L81.0497076,41.7357469 L81.1537851,41.1401887 L82.5333132,41.1401887 L82.24921,42.767317 C82.036233,42.903317 81.7903049,43.0084633 81.5126312,43.0847857 C81.2345556,43.161514 80.951256,43.2000812 80.6647418,43.2000812 C80.25888,43.2000812 79.9060616,43.1136096 79.6054828,42.9431021 C79.3069132,42.7713767 79.0907215,42.5310424 78.9597206,42.2220991 C78.830327,41.9127499 78.7977777,41.5680812 78.8644837,41.1880931 C78.9323952,40.8016096 79.086703,40.4516633 79.3262017,40.1390663 C79.5681113,39.8272812 79.8698957,39.5836991 80.2339657,39.4103499 C80.5980358,39.2365946 80.9838053,39.150123 81.3936855,39.150123 Z" id="形状结合" fill="#303030"></path>
                </g>
            </g>
        </g>
    </g>
</svg>