<?xml version="1.0" encoding="UTF-8"?>
<svg width="32px" height="32px" viewBox="0 0 32 32" version="1.1" xmlns="http://www.w3.org/2000/svg" xmlns:xlink="http://www.w3.org/1999/xlink">
    <title>夜间多云</title>
    <defs>
        <radialGradient cx="23.9648813%" cy="20.5297767%" fx="23.9648813%" fy="20.5297767%" r="81.8792049%" gradientTransform="translate(0.239649,0.205298),scale(1.000000,0.951253),rotate(61.943596),translate(-0.239649,-0.205298)" id="radialGradient-1">
            <stop stop-color="#FAC856" offset="0%"></stop>
            <stop stop-color="#F89B2B" offset="100%"></stop>
        </radialGradient>
        <path d="M9,7.45558702 C9,15.7398583 15.7157288,22.455587 24,22.455587 C25.3923635,22.455587 26.7404178,22.2658772 28.0197251,21.9108956 C25.4318761,26.4190349 20.5705504,29.455587 15,29.455587 C6.71572875,29.455587 0,22.7398583 0,14.455587 C0,7.56367923 4.64797136,1.75736331 10.9802749,0.000278455873 C9.72063418,2.19645851 9,4.7418662 9,7.45558702 Z" id="path-2"></path>
        <radialGradient cx="23.9648813%" cy="20.5297767%" fx="23.9648813%" fy="20.5297767%" r="81.8792049%" gradientTransform="translate(0.239649,0.205298),scale(1.000000,0.951253),rotate(61.943596),translate(-0.239649,-0.205298)" id="radialGradient-4">
            <stop stop-color="#FFDD60" offset="0%"></stop>
            <stop stop-color="#FF9F34" offset="100%"></stop>
        </radialGradient>
        <linearGradient x1="50%" y1="0%" x2="50%" y2="100%" id="linearGradient-5">
            <stop stop-color="#FFFFFF" stop-opacity="0" offset="0%"></stop>
            <stop stop-color="#005397" stop-opacity="0.2" offset="100%"></stop>
        </linearGradient>
        <path d="M6.94852941,0 C9.59047811,0 12.0326127,1.93695404 12.84252,4.80733233 C13.7076181,3.97733195 14.8873495,3.46666667 16.1875,3.46666667 C18.8453704,3.46666667 21,5.60077603 21,8.23333333 C21,10.7195245 19.0782982,12.7611528 16.6258698,12.9804903 L16.625,13 L16.23,12.999 L16.1875,13 C16.173066,13 16.1586468,12.9999371 16.1442428,12.9998114 L7,13 L6.94852941,13 C2.93813133,13 0,10.0898509 0,6.88235294 C0,2.91014913 2.93813133,0 6.94852941,0 Z" id="path-6"></path>
        <radialGradient cx="50%" cy="0%" fx="50%" fy="0%" r="100%" gradientTransform="translate(0.500000,0.000000),scale(0.714286,1.000000),rotate(90.000000),translate(-0.500000,-0.000000)" id="radialGradient-8">
            <stop stop-color="#ECF6FF" offset="0%"></stop>
            <stop stop-color="#C3DEFB" offset="100%"></stop>
        </radialGradient>
        <filter x="-19.0%" y="-26.7%" width="138.1%" height="153.3%" filterUnits="objectBoundingBox" id="filter-9">
            <feGaussianBlur stdDeviation="1.33333333" in="SourceGraphic"></feGaussianBlur>
        </filter>
        <path d="M6.94852941,0 C9.59047811,0 12.0326127,1.93695404 12.84252,4.80733233 C13.7076181,3.97733195 14.8873495,3.46666667 16.1875,3.46666667 C18.8453704,3.46666667 21,5.60077603 21,8.23333333 C21,10.7195245 19.0782982,12.7611528 16.6258698,12.9804903 L16.625,13 L16.23,12.999 L16.1875,13 C16.173066,13 16.1586468,12.9999371 16.1442428,12.9998114 L7,13 L6.94852941,13 C2.93813133,13 0,10.0898509 0,6.88235294 C0,2.91014913 2.93813133,0 6.94852941,0 Z" id="path-10"></path>
        <filter x="-19.0%" y="-26.7%" width="138.1%" height="153.3%" filterUnits="objectBoundingBox" id="filter-12">
            <feGaussianBlur stdDeviation="1.33333333" in="SourceGraphic"></feGaussianBlur>
        </filter>
    </defs>
    <g id="页面-1" stroke="none" stroke-width="1" fill="none" fill-rule="evenodd">
        <g id="画板" transform="translate(-232.000000, -317.000000)">
            <g id="夜间多云" transform="translate(232.000000, 317.000000)">
                <rect id="矩形备份-19" x="0" y="0" width="32" height="32"></rect>
                <g id="形状结合备份-6" transform="translate(2.000000, 1.000000)">
                    <mask id="mask-3" fill="white">
                        <use xlink:href="#path-2"></use>
                    </mask>
                    <use id="蒙版" fill="url(#radialGradient-1)" xlink:href="#path-2"></use>
                    <path d="M11,5.45558702 C11,13.7398583 17.7157288,20.455587 26,20.455587 C27.3923635,20.455587 28.7404178,20.2658772 30.0197251,19.9108956 C27.4318761,24.4190349 22.5705504,27.455587 17,27.455587 C8.71572875,27.455587 2,20.7398583 2,12.455587 C2,5.56367923 6.64797136,-0.242636692 12.9802749,-1.99972154 C11.7206342,0.196458509 11,2.7418662 11,5.45558702 Z" fill="url(#radialGradient-4)" mask="url(#mask-3)"></path>
                </g>
                <g id="编组-6备份-19" opacity="0.656018" transform="translate(5.000000, 11.000000)">
                    <mask id="mask-7" fill="white">
                        <use xlink:href="#path-6"></use>
                    </mask>
                    <g id="形状结合">
                        <use fill="#DDF0FF" xlink:href="#path-6"></use>
                        <use fill="url(#linearGradient-5)" xlink:href="#path-6"></use>
                    </g>
                    <path d="M6.875,-4 C9.58474935,-4 12.1090268,-2.16953521 13.2445511,0.633133307 C13.7206995,0.489059962 14.2263983,0.411764706 14.75,0.411764706 C17.6494949,0.411764706 20,2.78202191 20,5.70588235 C20,8.62974279 17.6494949,11 14.75,11 L14.75,11 L6.92,10.999 L6.875,11 C2.41900213,11 -0.868949167,7.77252559 -0.996175247,4.1584615 L-1,3.94117647 C-1,-0.642135624 2.32988217,-4 6.875,-4 Z" id="形状结合备份" fill="url(#radialGradient-8)" filter="url(#filter-9)" mask="url(#mask-7)"></path>
                    <path d="M6.875,-4 C9.58474935,-4 12.1090268,-2.16953521 13.2445511,0.633133307 C13.7206995,0.489059962 14.2263983,0.411764706 14.75,0.411764706 C17.6494949,0.411764706 20,2.78202191 20,5.70588235 C20,8.62974279 17.6494949,11 14.75,11 L14.75,11 L6.92,10.999 L6.875,11 C2.41900213,11 -0.868949167,7.77252559 -0.996175247,4.1584615 L-1,3.94117647 C-1,-0.642135624 2.32988217,-4 6.875,-4 Z" id="形状结合备份-5" fill="url(#radialGradient-8)" mask="url(#mask-7)"></path>
                </g>
                <g id="编组-6备份-18" opacity="0.96" transform="translate(0.000000, 14.000000)">
                    <mask id="mask-11" fill="white">
                        <use xlink:href="#path-10"></use>
                    </mask>
                    <g id="形状结合">
                        <use fill="#DDF0FF" xlink:href="#path-10"></use>
                        <use fill="url(#linearGradient-5)" xlink:href="#path-10"></use>
                    </g>
                    <path d="M6.875,-4 C9.58474935,-4 12.1090268,-2.16953521 13.2445511,0.633133307 C13.7206995,0.489059962 14.2263983,0.411764706 14.75,0.411764706 C17.6494949,0.411764706 20,2.78202191 20,5.70588235 C20,8.62974279 17.6494949,11 14.75,11 L14.75,11 L6.92,10.999 L6.875,11 C2.41900213,11 -0.868949167,7.77252559 -0.996175247,4.1584615 L-1,3.94117647 C-1,-0.642135624 2.32988217,-4 6.875,-4 Z" id="形状结合备份" fill="url(#radialGradient-8)" filter="url(#filter-12)" mask="url(#mask-11)"></path>
                    <path d="M6.875,-4 C9.58474935,-4 12.1090268,-2.16953521 13.2445511,0.633133307 C13.7206995,0.489059962 14.2263983,0.411764706 14.75,0.411764706 C17.6494949,0.411764706 20,2.78202191 20,5.70588235 C20,8.62974279 17.6494949,11 14.75,11 L14.75,11 L6.92,10.999 L6.875,11 C2.41900213,11 -0.868949167,7.77252559 -0.996175247,4.1584615 L-1,3.94117647 C-1,-0.642135624 2.32988217,-4 6.875,-4 Z" id="形状结合备份-5" fill="url(#radialGradient-8)" mask="url(#mask-11)"></path>
                </g>
            </g>
        </g>
    </g>
</svg>