<?xml version="1.0" encoding="UTF-8"?>
<svg width="32px" height="32px" viewBox="0 0 32 32" version="1.1" xmlns="http://www.w3.org/2000/svg" xmlns:xlink="http://www.w3.org/1999/xlink">
    <title>沙尘</title>
    <g id="页面-1" stroke="none" stroke-width="1" fill="none" fill-rule="evenodd">
        <g id="画板" transform="translate(-439.000000, -317.000000)">
            <g id="沙尘" transform="translate(439.000000, 317.000000)">
                <rect id="矩形备份-22" x="0" y="0" width="32" height="32"></rect>
                <g id="编组-13" transform="translate(1.000000, 6.000000)" stroke="#CBB387" stroke-linecap="round" stroke-width="1.5">
                    <g id="编组-7">
                        <path d="M15.2704113,8 C17.4795503,8 19.2704113,6.209139 19.2704113,4 C19.2704113,1.790861 17.4795503,0 15.2704113,0 C13.0612723,0 11.2704113,1.790861 11.2704113,4" id="路径"></path>
                        <line x1="15.0275305" y1="8" x2="0.311856241" y2="8" id="路径-4"></line>
                    </g>
                    <g id="编组-11" transform="translate(3.000000, 12.000000)">
                        <path d="M12.7172152,7.5 C14.6502118,7.5 16.2172152,5.93299662 16.2172152,4 C16.2172152,2.06700338 14.6502118,0.5 12.7172152,0.5 C10.7842186,0.5 9.21721519,2.06700338 9.21721519,4" id="路径" transform="translate(12.717215, 4.000000) scale(1, -1) translate(-12.717215, -4.000000) "></path>
                        <line x1="12.9743344" y1="0.5" x2="0.808075969" y2="0.5" id="路径-4" transform="translate(6.717215, 0.500000) scale(1, -1) translate(-6.717215, -0.500000) "></line>
                    </g>
                </g>
                <g id="编组-10" transform="translate(23.400000, 5.000000)" fill="#CBB387">
                    <circle id="椭圆形备份-15" cx="1.3" cy="13.6829063" r="1.3"></circle>
                    <circle id="椭圆形备份-19" cx="1.3" cy="7.60778346" r="1.3"></circle>
                    <circle id="椭圆形备份-20" cx="1.3" cy="1.53266058" r="1.3"></circle>
                    <circle id="椭圆形备份-16" cx="1.3" cy="19.7580292" r="1.3"></circle>
                </g>
                <g id="编组-10备份" transform="translate(27.800000, 8.000000)" fill="#CBB387">
                    <circle id="椭圆形备份-13" cx="1.2" cy="1.52468802" r="1"></circle>
                    <circle id="椭圆形备份-17" cx="1.2" cy="7.68673478" r="1"></circle>
                    <circle id="椭圆形备份-18" cx="1.2" cy="13.8487815" r="1"></circle>
                </g>
            </g>
        </g>
    </g>
</svg>