<?xml version="1.0" encoding="UTF-8"?>
<svg width="32px" height="34px" viewBox="0 0 32 34" version="1.1" xmlns="http://www.w3.org/2000/svg" xmlns:xlink="http://www.w3.org/1999/xlink">
    <title>大雪</title>
    <defs>
        <linearGradient x1="50%" y1="0%" x2="50%" y2="100%" id="linearGradient-1">
            <stop stop-color="#FFFFFF" stop-opacity="0" offset="0%"></stop>
            <stop stop-color="#005397" stop-opacity="0.2" offset="100%"></stop>
        </linearGradient>
        <path d="M10.6666667,20 L10.666,19.999 L10.5882353,20 C4.58073018,20 0.152237267,15.6733292 0.00384466168,10.838734 L0,10.5882353 C0,4.4771525 4.4771525,0 10.5882353,0 C14.6140068,0 18.335308,2.97984781 19.5695036,7.39571478 C20.8885465,6.1186456 22.6858968,5.33333333 24.6666667,5.33333333 C28.7167548,5.33333333 32,8.6165785 32,12.6666667 C32,16.4917877 29.0713685,19.6328903 25.3340386,19.9700411 L25.3333333,20 L10.6666667,20 Z" id="path-2"></path>
        <radialGradient cx="50%" cy="0%" fx="50%" fy="0%" r="100%" gradientTransform="translate(0.500000,0.000000),scale(0.708333,1.000000),rotate(90.000000),translate(-0.500000,-0.000000)" id="radialGradient-4">
            <stop stop-color="#ECF6FF" offset="0%"></stop>
            <stop stop-color="#C3DEFB" offset="100%"></stop>
        </radialGradient>
        <filter x="-12.5%" y="-17.6%" width="125.0%" height="135.3%" filterUnits="objectBoundingBox" id="filter-5">
            <feGaussianBlur stdDeviation="1.33333333" in="SourceGraphic"></feGaussianBlur>
        </filter>
    </defs>
    <g id="页面-1" stroke="none" stroke-width="1" fill="none" fill-rule="evenodd">
        <g id="画板" transform="translate(-283.000000, -244.000000)">
            <g id="大雪" transform="translate(283.000000, 243.842944)">
                <rect id="矩形备份-5" x="0" y="1.15705617" width="32" height="32"></rect>
                <g id="编组-6备份-12" transform="translate(0.000000, 3.000000)">
                    <mask id="mask-3" fill="white">
                        <use xlink:href="#path-2"></use>
                    </mask>
                    <g id="形状结合">
                        <use fill="#DDF0FF" xlink:href="#path-2"></use>
                        <use fill="url(#linearGradient-1)" xlink:href="#path-2"></use>
                    </g>
                    <path d="M10.6666667,17.3333333 L10.343384,17.3296343 C3.58344581,17.1746409 -1.33333333,12.1718434 -1.33333333,6.66666667 C-1.33333333,-0.259227164 3.74077284,-5.33333333 10.6666667,-5.33333333 C14.795711,-5.33333333 18.642145,-2.56742827 20.3725267,1.6675459 C21.0990379,1.4500094 21.8692267,1.33333333 22.6666667,1.33333333 C27.0849447,1.33333333 30.6666667,4.91505533 30.6666667,9.33333333 C30.6666667,13.7516113 27.0849447,17.3333333 22.6666667,17.3333333 L22.6666667,17.3333333 L10.6666667,17.3333333 Z" id="形状结合备份" fill="url(#radialGradient-4)" filter="url(#filter-5)" mask="url(#mask-3)"></path>
                    <path d="M10.6666667,17.3333333 L10.343384,17.3296343 C3.58344581,17.1746409 -1.33333333,12.1718434 -1.33333333,6.66666667 C-1.33333333,-0.259227164 3.74077284,-5.33333333 10.6666667,-5.33333333 C14.795711,-5.33333333 18.642145,-2.56742827 20.3725267,1.6675459 C21.0990379,1.4500094 21.8692267,1.33333333 22.6666667,1.33333333 C27.0849447,1.33333333 30.6666667,4.91505533 30.6666667,9.33333333 C30.6666667,13.7516113 27.0849447,17.3333333 22.6666667,17.3333333 L22.6666667,17.3333333 L10.6666667,17.3333333 Z" id="形状结合备份-5" fill="url(#radialGradient-4)" mask="url(#mask-3)"></path>
                </g>
                <g id="编组-2备份" transform="translate(7.000000, 26.500000) rotate(-90.000000) translate(-7.000000, -26.500000) translate(4.000000, 23.000000)" fill="#C2DEFB">
                    <rect id="矩形" x="1.13686838e-13" y="3" width="6" height="1" rx="0.5"></rect>
                    <path d="M0.454949858,3.16553894 L5.56188953,3.08584994 C5.84545155,3.08142523 6.07891093,3.30771072 6.08333565,3.59127274 C6.08341975,3.59666252 6.08341898,3.60205328 6.08333333,3.60744303 C6.07864099,3.90273785 5.84034629,4.14096435 5.54505014,4.14557217 L0.438110475,4.22526117 C0.154548453,4.22968589 -0.0789109285,4.00340039 -0.0833356476,3.71983837 C-0.08341975,3.71444859 -0.0834189785,3.70905783 -0.0833333333,3.70366808 C-0.0786409881,3.40837326 0.159653709,3.17014676 0.454949858,3.16553894 Z" id="矩形" transform="translate(3.000000, 3.655556) rotate(-60.000000) translate(-3.000000, -3.655556) "></path>
                    <path d="M0.438110475,3.08584994 L5.54505014,3.16553894 C5.84034629,3.17014676 6.07864099,3.40837326 6.08333333,3.70366808 C6.08783922,3.98722882 5.86162056,4.22075297 5.57805982,4.22525885 C5.57267007,4.2253445 5.5672793,4.22534527 5.56188953,4.22526117 L0.454949858,4.14557217 C0.159653709,4.14096435 -0.0786409881,3.90273785 -0.0833333333,3.60744303 C-0.0878392197,3.32388229 0.138379439,3.09035815 0.421940183,3.08585226 C0.427329934,3.08576661 0.432720699,3.08576584 0.438110475,3.08584994 Z" id="矩形" transform="translate(3.000000, 3.655556) rotate(-120.000000) translate(-3.000000, -3.655556) "></path>
                </g>
                <g id="编组-2备份-3" transform="translate(24.000000, 27.500000) rotate(-90.000000) translate(-24.000000, -27.500000) translate(21.000000, 24.000000)" fill="#C2DEFB">
                    <rect id="矩形" x="1.13686838e-13" y="3" width="6" height="1" rx="0.5"></rect>
                    <path d="M0.454949858,3.16553894 L5.56188953,3.08584994 C5.84545155,3.08142523 6.07891093,3.30771072 6.08333565,3.59127274 C6.08341975,3.59666252 6.08341898,3.60205328 6.08333333,3.60744303 C6.07864099,3.90273785 5.84034629,4.14096435 5.54505014,4.14557217 L0.438110475,4.22526117 C0.154548453,4.22968589 -0.0789109285,4.00340039 -0.0833356476,3.71983837 C-0.08341975,3.71444859 -0.0834189785,3.70905783 -0.0833333333,3.70366808 C-0.0786409881,3.40837326 0.159653709,3.17014676 0.454949858,3.16553894 Z" id="矩形" transform="translate(3.000000, 3.655556) rotate(-60.000000) translate(-3.000000, -3.655556) "></path>
                    <path d="M0.438110475,3.08584994 L5.54505014,3.16553894 C5.84034629,3.17014676 6.07864099,3.40837326 6.08333333,3.70366808 C6.08783922,3.98722882 5.86162056,4.22075297 5.57805982,4.22525885 C5.57267007,4.2253445 5.5672793,4.22534527 5.56188953,4.22526117 L0.454949858,4.14557217 C0.159653709,4.14096435 -0.0786409881,3.90273785 -0.0833333333,3.60744303 C-0.0878392197,3.32388229 0.138379439,3.09035815 0.421940183,3.08585226 C0.427329934,3.08576661 0.432720699,3.08576584 0.438110475,3.08584994 Z" id="矩形" transform="translate(3.000000, 3.655556) rotate(-120.000000) translate(-3.000000, -3.655556) "></path>
                </g>
                <g id="编组-2备份-4" transform="translate(15.500000, 29.500000) rotate(-90.000000) translate(-15.500000, -29.500000) translate(12.500000, 26.000000)" fill="#C2DEFB">
                    <rect id="矩形" x="1.13686838e-13" y="3" width="6" height="1" rx="0.5"></rect>
                    <path d="M0.454949858,3.16553894 L5.56188953,3.08584994 C5.84545155,3.08142523 6.07891093,3.30771072 6.08333565,3.59127274 C6.08341975,3.59666252 6.08341898,3.60205328 6.08333333,3.60744303 C6.07864099,3.90273785 5.84034629,4.14096435 5.54505014,4.14557217 L0.438110475,4.22526117 C0.154548453,4.22968589 -0.0789109285,4.00340039 -0.0833356476,3.71983837 C-0.08341975,3.71444859 -0.0834189785,3.70905783 -0.0833333333,3.70366808 C-0.0786409881,3.40837326 0.159653709,3.17014676 0.454949858,3.16553894 Z" id="矩形" transform="translate(3.000000, 3.655556) rotate(-60.000000) translate(-3.000000, -3.655556) "></path>
                    <path d="M0.438110475,3.08584994 L5.54505014,3.16553894 C5.84034629,3.17014676 6.07864099,3.40837326 6.08333333,3.70366808 C6.08783922,3.98722882 5.86162056,4.22075297 5.57805982,4.22525885 C5.57267007,4.2253445 5.5672793,4.22534527 5.56188953,4.22526117 L0.454949858,4.14557217 C0.159653709,4.14096435 -0.0786409881,3.90273785 -0.0833333333,3.60744303 C-0.0878392197,3.32388229 0.138379439,3.09035815 0.421940183,3.08585226 C0.427329934,3.08576661 0.432720699,3.08576584 0.438110475,3.08584994 Z" id="矩形" transform="translate(3.000000, 3.655556) rotate(-120.000000) translate(-3.000000, -3.655556) "></path>
                </g>
            </g>
        </g>
    </g>
</svg>