<?xml version="1.0" encoding="UTF-8"?>
<svg width="32px" height="32px" viewBox="0 0 32 32" version="1.1" xmlns="http://www.w3.org/2000/svg" xmlns:xlink="http://www.w3.org/1999/xlink">
    <title>夜间</title>
    <defs>
        <radialGradient cx="23.9648813%" cy="20.5297767%" fx="23.9648813%" fy="20.5297767%" r="81.8786021%" gradientTransform="translate(0.239649,0.205298),scale(1.000000,0.951262),rotate(61.943372),translate(-0.239649,-0.205298)" id="radialGradient-1">
            <stop stop-color="#ECFCFF" offset="0%"></stop>
            <stop stop-color="#C3DEFB" offset="100%"></stop>
        </radialGradient>
        <path d="M9,7.45558702 C9,15.7398583 15.7157288,22.455587 24,22.455587 C25.3923635,22.455587 26.7404178,22.2658772 28.0197251,21.9108956 C25.4317892,26.4190891 20.5705006,29.455587 15,29.455587 C6.71572875,29.455587 -2.48689958e-14,22.7398583 -2.48689958e-14,14.455587 C-2.48689958e-14,7.56331511 4.64846249,1.75674979 10.9812785,-9.77007104e-15 C9.72082681,2.19577818 9,4.74150354 9,7.45558702 Z" id="path-2"></path>
        <radialGradient cx="50%" cy="0%" fx="50%" fy="0%" r="100%" id="radialGradient-4">
            <stop stop-color="#FFDD60" offset="0%"></stop>
            <stop stop-color="#FF9F34" offset="100%"></stop>
        </radialGradient>
    </defs>
    <g id="页面-1" stroke="none" stroke-width="1" fill="none" fill-rule="evenodd">
        <g id="画板" transform="translate(-335.000000, -317.000000)">
            <g id="夜间" transform="translate(335.000000, 317.000000)">
                <rect id="矩形备份-20" x="0" y="0" width="32" height="32"></rect>
                <g id="形状结合备份-7" transform="translate(2.000000, 1.000000)">
                    <mask id="mask-3" fill="white">
                        <use xlink:href="#path-2"></use>
                    </mask>
                    <use id="蒙版" fill="url(#radialGradient-1)" xlink:href="#path-2"></use>
                    <path d="M11,5.45530856 C11,13.7395798 17.7157288,20.4553086 26,20.4553086 C27.3923635,20.4553086 28.7404178,20.2655988 30.0197251,19.9106171 C27.4317892,24.4188107 22.5705006,27.4553086 17,27.4553086 C8.71572875,27.4553086 2,20.7395798 2,12.4553086 C2,5.56303666 6.64846249,-0.243528661 12.9812785,-2.00027846 C11.7208268,0.19549972 11,2.74122508 11,5.45530856 Z" fill="url(#radialGradient-1)" mask="url(#mask-3)"></path>
                </g>
                <polygon id="星形" fill="url(#radialGradient-4)" transform="translate(20.337117, 5.449490) rotate(-345.000000) translate(-20.337117, -5.449490) " points="20.3371173 6.44948974 19.1615468 7.06752373 19.3860608 5.75850674 18.4350043 4.83145575 19.7493321 4.64047275 20.3371173 3.44948974 20.9249026 4.64047275 22.2392303 4.83145575 21.2881738 5.75850674 21.5126878 7.06752373"></polygon>
                <polygon id="星形备份" fill="url(#radialGradient-4)" transform="translate(17.837117, 12.949490) rotate(-345.000000) translate(-17.837117, -12.949490) " points="17.8371173 13.6994897 16.9554394 14.1630152 17.1238249 13.1812525 16.4105325 12.4859643 17.3962784 12.342727 17.8371173 11.4494897 18.2779562 12.342727 19.2637021 12.4859643 18.5504097 13.1812525 18.7187952 14.1630152"></polygon>
                <polygon id="星形备份-2" fill="url(#radialGradient-4)" transform="translate(28.000000, 21.000000) rotate(-345.000000) translate(-28.000000, -21.000000) " points="28 21.5 27.4122147 21.809017 27.5244717 21.1545085 27.0489435 20.690983 27.7061074 20.5954915 28 20 28.2938926 20.5954915 28.9510565 20.690983 28.4755283 21.1545085 28.5877853 21.809017"></polygon>
            </g>
        </g>
    </g>
</svg>