<?xml version="1.0" encoding="UTF-8"?>
<svg width="32px" height="32px" viewBox="0 0 32 32" version="1.1" xmlns="http://www.w3.org/2000/svg" xmlns:xlink="http://www.w3.org/1999/xlink">
    <title>暴雨</title>
    <defs>
        <linearGradient x1="50%" y1="0%" x2="50%" y2="100%" id="linearGradient-1">
            <stop stop-color="#FFFFFF" stop-opacity="0" offset="0%"></stop>
            <stop stop-color="#005397" stop-opacity="0.2" offset="100%"></stop>
        </linearGradient>
        <path d="M10.6666667,20 L10.666,19.999 L10.5882353,20 C4.58073018,20 0.152237267,15.6733292 0.00384466168,10.838734 L0,10.5882353 C0,4.4771525 4.4771525,0 10.5882353,0 C14.6140068,0 18.335308,2.97984781 19.5695036,7.39571478 C20.8885465,6.1186456 22.6858968,5.33333333 24.6666667,5.33333333 C28.7167548,5.33333333 32,8.6165785 32,12.6666667 C32,16.4917877 29.0713685,19.6328903 25.3340386,19.9700411 L25.3333333,20 L10.6666667,20 Z" id="path-2"></path>
        <radialGradient cx="50%" cy="0%" fx="50%" fy="0%" r="100%" gradientTransform="translate(0.500000,0.000000),scale(0.708333,1.000000),rotate(90.000000),translate(-0.500000,-0.000000)" id="radialGradient-4">
            <stop stop-color="#ECF6FF" offset="0%"></stop>
            <stop stop-color="#C3DEFB" offset="100%"></stop>
        </radialGradient>
        <filter x="-12.5%" y="-17.6%" width="125.0%" height="135.3%" filterUnits="objectBoundingBox" id="filter-5">
            <feGaussianBlur stdDeviation="1.33333333" in="SourceGraphic"></feGaussianBlur>
        </filter>
        <linearGradient x1="50%" y1="0%" x2="50%" y2="100%" id="linearGradient-6">
            <stop stop-color="#60C5FF" offset="0%"></stop>
            <stop stop-color="#69B3FE" offset="100%"></stop>
        </linearGradient>
        <path d="M1,4 C1.55228475,4 2,3.47316235 2,2.73658117 C2,2 1.36924233,0 1,0 C0.630757667,0 0,2 0,2.73658117 C0,3.47316235 0.44771525,4 1,4 Z" id="path-7"></path>
        <linearGradient x1="50%" y1="0%" x2="50%" y2="100%" id="linearGradient-9">
            <stop stop-color="#60C5FF" offset="0%"></stop>
            <stop stop-color="#69B3FE" offset="100%"></stop>
        </linearGradient>
        <path d="M0.5,2 C0.776142375,2 1,1.73658117 1,1.36829059 C1,1 0.684621166,0 0.5,0 C0.315378834,0 -1.13686838e-13,1 -1.13686838e-13,1.36829059 C-1.13686838e-13,1.73658117 0.223857625,2 0.5,2 Z" id="path-10"></path>
        <path d="M0.5,2 C0.776142375,2 1,1.73658117 1,1.36829059 C1,1 0.684621166,0 0.5,0 C0.315378834,0 -1.13686838e-13,1 -1.13686838e-13,1.36829059 C-1.13686838e-13,1.73658117 0.223857625,2 0.5,2 Z" id="path-12"></path>
        <path d="M1,4 C1.55228475,4 2,3.47316235 2,2.73658117 C2,2 1.36924233,0 1,0 C0.630757667,0 0,2 0,2.73658117 C0,3.47316235 0.44771525,4 1,4 Z" id="path-14"></path>
        <path d="M1,4 C1.55228475,4 2,3.47316235 2,2.73658117 C2,2 1.36924233,0 1,0 C0.630757667,0 0,2 0,2.73658117 C0,3.47316235 0.44771525,4 1,4 Z" id="path-16"></path>
    </defs>
    <g id="页面-1" stroke="none" stroke-width="1" fill="none" fill-rule="evenodd">
        <g id="画板" transform="translate(-283.000000, -176.000000)">
            <g id="暴雨" transform="translate(283.000000, 176.000000)">
                <rect id="矩形备份-2" x="0" y="0" width="32" height="32"></rect>
                <g id="编组-6备份-9" transform="translate(0.000000, 2.000000)">
                    <mask id="mask-3" fill="white">
                        <use xlink:href="#path-2"></use>
                    </mask>
                    <g id="形状结合">
                        <use fill="#DDF0FF" xlink:href="#path-2"></use>
                        <use fill="url(#linearGradient-1)" xlink:href="#path-2"></use>
                    </g>
                    <path d="M10.6666667,17.3333333 L10.343384,17.3296343 C3.58344581,17.1746409 -1.33333333,12.1718434 -1.33333333,6.66666667 C-1.33333333,-0.259227164 3.74077284,-5.33333333 10.6666667,-5.33333333 C14.795711,-5.33333333 18.642145,-2.56742827 20.3725267,1.6675459 C21.0990379,1.4500094 21.8692267,1.33333333 22.6666667,1.33333333 C27.0849447,1.33333333 30.6666667,4.91505533 30.6666667,9.33333333 C30.6666667,13.7516113 27.0849447,17.3333333 22.6666667,17.3333333 L22.6666667,17.3333333 L10.6666667,17.3333333 Z" id="形状结合备份" fill="url(#radialGradient-4)" filter="url(#filter-5)" mask="url(#mask-3)"></path>
                    <path d="M10.6666667,17.3333333 L10.343384,17.3296343 C3.58344581,17.1746409 -1.33333333,12.1718434 -1.33333333,6.66666667 C-1.33333333,-0.259227164 3.74077284,-5.33333333 10.6666667,-5.33333333 C14.795711,-5.33333333 18.642145,-2.56742827 20.3725267,1.6675459 C21.0990379,1.4500094 21.8692267,1.33333333 22.6666667,1.33333333 C27.0849447,1.33333333 30.6666667,4.91505533 30.6666667,9.33333333 C30.6666667,13.7516113 27.0849447,17.3333333 22.6666667,17.3333333 L22.6666667,17.3333333 L10.6666667,17.3333333 Z" id="形状结合备份-5" fill="url(#radialGradient-4)" mask="url(#mask-3)"></path>
                </g>
                <g id="椭圆形备份" transform="translate(7.000000, 25.000000) rotate(-345.000000) translate(-7.000000, -25.000000) translate(6.000000, 23.000000)">
                    <mask id="mask-8" fill="white">
                        <use xlink:href="#path-7"></use>
                    </mask>
                    <use id="蒙版" fill="url(#linearGradient-6)" xlink:href="#path-7"></use>
                    <path d="M1,3 C1.55228475,3 2,2.47316235 2,1.73658117 C2,1 1.36924233,-1 1,-1 C0.630757667,-1 0,1 0,1.73658117 C0,2.47316235 0.44771525,3 1,3 Z" fill="url(#linearGradient-6)" mask="url(#mask-8)"></path>
                </g>
                <g id="椭圆形备份-7" transform="translate(10.500000, 29.000000) rotate(-345.000000) translate(-10.500000, -29.000000) translate(10.000000, 28.000000)">
                    <mask id="mask-11" fill="white">
                        <use xlink:href="#path-10"></use>
                    </mask>
                    <use id="蒙版" fill="url(#linearGradient-9)" xlink:href="#path-10"></use>
                    <path d="M0.5,1 C0.776142375,1 1,0.736581175 1,0.368290587 C1,0 0.684621166,-1 0.5,-1 C0.315378834,-1 -1.13686838e-13,0 -1.13686838e-13,0.368290587 C-1.13686838e-13,0.736581175 0.223857625,1 0.5,1 Z" id="椭圆形备份" fill="url(#linearGradient-9)" mask="url(#mask-11)"></path>
                </g>
                <g id="椭圆形备份-10" transform="translate(21.500000, 29.000000) rotate(-345.000000) translate(-21.500000, -29.000000) translate(21.000000, 28.000000)">
                    <mask id="mask-13" fill="white">
                        <use xlink:href="#path-12"></use>
                    </mask>
                    <use id="蒙版" fill="url(#linearGradient-9)" xlink:href="#path-12"></use>
                    <path d="M0.5,1 C0.776142375,1 1,0.736581175 1,0.368290587 C1,0 0.684621166,-1 0.5,-1 C0.315378834,-1 -1.13686838e-13,0 -1.13686838e-13,0.368290587 C-1.13686838e-13,0.736581175 0.223857625,1 0.5,1 Z" id="椭圆形备份" fill="url(#linearGradient-9)" mask="url(#mask-13)"></path>
                </g>
                <g id="椭圆形备份-3" transform="translate(25.000000, 25.000000) rotate(-345.000000) translate(-25.000000, -25.000000) translate(24.000000, 23.000000)">
                    <mask id="mask-15" fill="white">
                        <use xlink:href="#path-14"></use>
                    </mask>
                    <use id="蒙版" fill="url(#linearGradient-6)" xlink:href="#path-14"></use>
                    <path d="M1,3 C1.55228475,3 2,2.47316235 2,1.73658117 C2,1 1.36924233,-1 1,-1 C0.630757667,-1 0,1 0,1.73658117 C0,2.47316235 0.44771525,3 1,3 Z" id="椭圆形备份" fill="url(#linearGradient-6)" mask="url(#mask-15)"></path>
                </g>
                <g id="椭圆形备份-2" transform="translate(16.000000, 27.000000) rotate(-345.000000) translate(-16.000000, -27.000000) translate(15.000000, 25.000000)">
                    <mask id="mask-17" fill="white">
                        <use xlink:href="#path-16"></use>
                    </mask>
                    <use id="蒙版" fill="url(#linearGradient-6)" xlink:href="#path-16"></use>
                    <path d="M1,3 C1.55228475,3 2,2.47316235 2,1.73658117 C2,1 1.36924233,-1 1,-1 C0.630757667,-1 0,1 0,1.73658117 C0,2.47316235 0.44771525,3 1,3 Z" id="椭圆形备份" fill="url(#linearGradient-6)" mask="url(#mask-17)"></path>
                </g>
            </g>
        </g>
    </g>
</svg>