<?xml version="1.0" encoding="UTF-8"?>
<svg width="32px" height="32px" viewBox="0 0 32 32" version="1.1" xmlns="http://www.w3.org/2000/svg" xmlns:xlink="http://www.w3.org/1999/xlink">
    <title>夜间晴</title>
    <defs>
        <radialGradient cx="23.9648813%" cy="20.5297767%" fx="23.9648813%" fy="20.5297767%" r="81.8792049%" gradientTransform="translate(0.239649,0.205298),scale(1.000000,0.951253),rotate(61.943596),translate(-0.239649,-0.205298)" id="radialGradient-1">
            <stop stop-color="#FAC856" offset="0%"></stop>
            <stop stop-color="#F89B2B" offset="100%"></stop>
        </radialGradient>
        <path d="M11,8.45558702 C11,16.7398583 17.7157288,23.455587 26,23.455587 C27.3923635,23.455587 28.7404178,23.2658772 30.0197251,22.9108956 C27.4318761,27.4190349 22.5705504,30.455587 17,30.455587 C8.71572875,30.455587 2,23.7398583 2,15.455587 C2,8.56367923 6.64797136,2.75736331 12.9802749,1.00027846 C11.7206342,3.19645851 11,5.7418662 11,8.45558702 Z" id="path-2"></path>
        <radialGradient cx="23.9648813%" cy="20.5297767%" fx="23.9648813%" fy="20.5297767%" r="81.8792049%" gradientTransform="translate(0.239649,0.205298),scale(1.000000,0.951253),rotate(61.943596),translate(-0.239649,-0.205298)" id="radialGradient-4">
            <stop stop-color="#FFDD60" offset="0%"></stop>
            <stop stop-color="#FF9F34" offset="100%"></stop>
        </radialGradient>
    </defs>
    <g id="页面-1" stroke="none" stroke-width="1" fill="none" fill-rule="evenodd">
        <g id="画板" transform="translate(-440.000000, -245.000000)">
            <g id="夜间晴" transform="translate(440.000000, 245.000000)">
                <rect id="矩形备份-13" x="0" y="0" width="32" height="32"></rect>
                <mask id="mask-3" fill="white">
                    <use xlink:href="#path-2"></use>
                </mask>
                <use id="蒙版" fill="url(#radialGradient-1)" xlink:href="#path-2"></use>
                <path d="M13,6.45558702 C13,14.7398583 19.7157288,21.455587 28,21.455587 C29.3923635,21.455587 30.7404178,21.2658772 32.0197251,20.9108956 C29.4318761,25.4190349 24.5705504,28.455587 19,28.455587 C10.7157288,28.455587 4,21.7398583 4,13.455587 C4,6.56367923 8.64797136,0.757363308 14.9802749,-0.999721544 C13.7206342,1.19645851 13,3.7418662 13,6.45558702 Z" id="形状结合备份-6" fill="url(#radialGradient-4)" mask="url(#mask-3)"></path>
            </g>
        </g>
    </g>
</svg>