<?xml version="1.0" encoding="UTF-8"?>
<svg width="32px" height="32px" viewBox="0 0 32 32" version="1.1" xmlns="http://www.w3.org/2000/svg" xmlns:xlink="http://www.w3.org/1999/xlink">
    <title>晴</title>
    <defs>
        <radialGradient cx="51.7109455%" cy="33.5563414%" fx="51.7109455%" fy="33.5563414%" r="100%" id="radialGradient-1">
            <stop stop-color="#FFDD60" offset="0%"></stop>
            <stop stop-color="#F97B2B" offset="100%"></stop>
        </radialGradient>
        <circle id="path-2" cx="8" cy="8" r="8"></circle>
        <radialGradient cx="51.7109455%" cy="33.5563414%" fx="51.7109455%" fy="33.5563414%" r="100%" id="radialGradient-4">
            <stop stop-color="#FFDD60" offset="0%"></stop>
            <stop stop-color="#FF9F34" offset="100%"></stop>
        </radialGradient>
    </defs>
    <g id="页面-1" stroke="none" stroke-width="1" fill="none" fill-rule="evenodd">
        <g id="画板" transform="translate(-283.000000, -109.000000)">
            <g id="编组-9" transform="translate(283.000000, 109.000000)">
                <g id="晴">
                    <rect id="矩形" x="0" y="0" width="32" height="32"></rect>
                    <g transform="translate(2.333333, 2.000000)">
                        <g id="椭圆形备份-11" transform="translate(5.666667, 6.000000)">
                            <mask id="mask-3" fill="white">
                                <use xlink:href="#path-2"></use>
                            </mask>
                            <use id="蒙版" fill="url(#radialGradient-1)" xlink:href="#path-2"></use>
                            <circle fill="url(#radialGradient-4)" mask="url(#mask-3)" cx="7" cy="6" r="8"></circle>
                        </g>
                        <circle id="椭圆形备份-33" fill="#FFCE4D" cx="14" cy="1.33333333" r="1.33333333"></circle>
                        <circle id="椭圆形备份-33" fill="#FFCE4D" transform="translate(22.956686, 5.043314) rotate(45.000000) translate(-22.956686, -5.043314) " cx="22.9566859" cy="5.0433141" r="1.33333333"></circle>
                        <circle id="椭圆形备份-33" fill="#FFCE4D" transform="translate(26.666667, 14.000000) rotate(90.000000) translate(-26.666667, -14.000000) " cx="26.6666667" cy="14" r="1.33333333"></circle>
                        <circle id="椭圆形备份-33" fill="#FFCE4D" transform="translate(22.956686, 22.956686) rotate(135.000000) translate(-22.956686, -22.956686) " cx="22.9566859" cy="22.9566859" r="1.33333333"></circle>
                        <circle id="椭圆形备份-33" fill="#FFCE4D" transform="translate(14.000000, 26.666667) rotate(180.000000) translate(-14.000000, -26.666667) " cx="14" cy="26.6666667" r="1.33333333"></circle>
                        <circle id="椭圆形备份-33" fill="#FFCE4D" transform="translate(5.043314, 22.956686) rotate(225.000000) translate(-5.043314, -22.956686) " cx="5.0433141" cy="22.9566859" r="1.33333333"></circle>
                        <circle id="椭圆形备份-33" fill="#FFCE4D" transform="translate(1.333333, 14.000000) rotate(270.000000) translate(-1.333333, -14.000000) " cx="1.33333333" cy="14" r="1.33333333"></circle>
                        <circle id="椭圆形备份-33" fill="#FFCE4D" transform="translate(5.043314, 5.043314) rotate(315.000000) translate(-5.043314, -5.043314) " cx="5.0433141" cy="5.0433141" r="1.33333333"></circle>
                    </g>
                </g>
            </g>
        </g>
    </g>
</svg>