<?xml version="1.0" encoding="UTF-8"?>
<svg width="32px" height="32px" viewBox="0 0 32 32" version="1.1" xmlns="http://www.w3.org/2000/svg" xmlns:xlink="http://www.w3.org/1999/xlink">
    <title>雷阵雨</title>
    <defs>
        <linearGradient x1="50%" y1="0%" x2="50%" y2="100%" id="linearGradient-1">
            <stop stop-color="#FFFFFF" stop-opacity="0" offset="0%"></stop>
            <stop stop-color="#005397" stop-opacity="0.2" offset="100%"></stop>
        </linearGradient>
        <path d="M10.6666667,20 L10.666,19.999 L10.5882353,20 C4.58073018,20 0.152237267,15.6733292 0.00384466168,10.838734 L0,10.5882353 C0,4.4771525 4.4771525,0 10.5882353,0 C14.6140068,0 18.335308,2.97984781 19.5695036,7.39571478 C20.8885465,6.1186456 22.6858968,5.33333333 24.6666667,5.33333333 C28.7167548,5.33333333 32,8.6165785 32,12.6666667 C32,16.4917877 29.0713685,19.6328903 25.3340386,19.9700411 L25.3333333,20 L10.6666667,20 Z" id="path-2"></path>
        <radialGradient cx="50%" cy="0%" fx="50%" fy="0%" r="100%" gradientTransform="translate(0.500000,0.000000),scale(0.708333,1.000000),rotate(90.000000),translate(-0.500000,-0.000000)" id="radialGradient-4">
            <stop stop-color="#ECF6FF" offset="0%"></stop>
            <stop stop-color="#C3DEFB" offset="100%"></stop>
        </radialGradient>
        <filter x="-12.5%" y="-17.6%" width="125.0%" height="135.3%" filterUnits="objectBoundingBox" id="filter-5">
            <feGaussianBlur stdDeviation="1.33333333" in="SourceGraphic"></feGaussianBlur>
        </filter>
        <linearGradient x1="50%" y1="27.127586%" x2="50%" y2="100%" id="linearGradient-6">
            <stop stop-color="#FFDD60" offset="0%"></stop>
            <stop stop-color="#FF9F34" offset="100%"></stop>
        </linearGradient>
    </defs>
    <g id="页面-1" stroke="none" stroke-width="1" fill="none" fill-rule="evenodd">
        <g id="画板" transform="translate(-387.000000, -176.000000)">
            <g id="雷阵雨" transform="translate(387.000000, 176.000000)">
                <rect id="矩形备份-8" x="0" y="-1.13686838e-13" width="32" height="32"></rect>
                <g id="编组-6备份-7" transform="translate(0.000000, 2.000000)">
                    <mask id="mask-3" fill="white">
                        <use xlink:href="#path-2"></use>
                    </mask>
                    <g id="形状结合">
                        <use fill="#DDF0FF" xlink:href="#path-2"></use>
                        <use fill="url(#linearGradient-1)" xlink:href="#path-2"></use>
                    </g>
                    <path d="M10.6666667,17.3333333 L10.343384,17.3296343 C3.58344581,17.1746409 -1.33333333,12.1718434 -1.33333333,6.66666667 C-1.33333333,-0.259227164 3.74077284,-5.33333333 10.6666667,-5.33333333 C14.795711,-5.33333333 18.642145,-2.56742827 20.3725267,1.6675459 C21.0990379,1.4500094 21.8692267,1.33333333 22.6666667,1.33333333 C27.0849447,1.33333333 30.6666667,4.91505533 30.6666667,9.33333333 C30.6666667,13.7516113 27.0849447,17.3333333 22.6666667,17.3333333 L22.6666667,17.3333333 L10.6666667,17.3333333 Z" id="形状结合备份" fill="url(#radialGradient-4)" filter="url(#filter-5)" mask="url(#mask-3)"></path>
                    <path d="M10.6666667,17.3333333 L10.343384,17.3296343 C3.58344581,17.1746409 -1.33333333,12.1718434 -1.33333333,6.66666667 C-1.33333333,-0.259227164 3.74077284,-5.33333333 10.6666667,-5.33333333 C14.795711,-5.33333333 18.642145,-2.56742827 20.3725267,1.6675459 C21.0990379,1.4500094 21.8692267,1.33333333 22.6666667,1.33333333 C27.0849447,1.33333333 30.6666667,4.91505533 30.6666667,9.33333333 C30.6666667,13.7516113 27.0849447,17.3333333 22.6666667,17.3333333 L22.6666667,17.3333333 L10.6666667,17.3333333 Z" id="形状结合备份-5" fill="url(#radialGradient-4)" mask="url(#mask-3)"></path>
                </g>
                <line x1="8.67759631" y1="24" x2="6.99999981" y2="26.9056824" id="路径备份-4" stroke="#69B3FE" stroke-width="1.5" stroke-linecap="round"></line>
                <line x1="25" y1="24.5304078" x2="22" y2="29.7265602" id="路径备份-5" stroke="#69B3FE" stroke-width="1.5" stroke-linecap="round"></line>
                <polygon id="路径-2" fill="url(#linearGradient-6)" transform="translate(16.019109, 23.863280) rotate(-345.000000) translate(-16.019109, -23.863280) " points="16.6666667 17 12.6881213 26.0710678 15.3440606 26.0710678 15.3440606 30.7265602 19.3500971 22 16.6666667 22"></polygon>
            </g>
        </g>
    </g>
</svg>