<?xml version="1.0" encoding="UTF-8"?>
<svg width="32px" height="32px" viewBox="0 0 32 32" version="1.1" xmlns="http://www.w3.org/2000/svg" xmlns:xlink="http://www.w3.org/1999/xlink">
    <title>风</title>
    <defs>
        <linearGradient x1="74.5386403%" y1="87.6771872%" x2="16.7037066%" y2="25.3626134%" id="linearGradient-1">
            <stop stop-color="#0084FE" offset="0%"></stop>
            <stop stop-color="#60C5FF" offset="100%"></stop>
        </linearGradient>
        <linearGradient x1="0%" y1="50%" x2="95.8392423%" y2="50%" id="linearGradient-2">
            <stop stop-color="#60C5FF" offset="0%"></stop>
            <stop stop-color="#0084FE" offset="100%"></stop>
        </linearGradient>
        <linearGradient x1="0%" y1="50%" x2="95.8392423%" y2="50%" id="linearGradient-3">
            <stop stop-color="#60C5FF" offset="0%"></stop>
            <stop stop-color="#0084FE" offset="100%"></stop>
        </linearGradient>
        <linearGradient x1="0%" y1="50%" x2="95.8392423%" y2="50%" id="linearGradient-4">
            <stop stop-color="#60C5FF" offset="0%"></stop>
            <stop stop-color="#0084FE" offset="100%"></stop>
        </linearGradient>
    </defs>
    <g id="页面-1" stroke="none" stroke-width="1" fill="none" fill-rule="evenodd">
        <g id="画板" transform="translate(-387.000000, -317.000000)">
            <g id="风" transform="translate(387.000000, 317.000000)">
                <rect id="矩形备份-21" x="0" y="0" width="32" height="32"></rect>
                <g id="编组-7" transform="translate(2.000000, 4.000000)" stroke-linecap="round" stroke-width="1.5">
                    <path d="M16,8 C18.209139,8 20,6.209139 20,4 C20,1.790861 18.209139,0 16,0 C13.790861,0 12,1.790861 12,4" id="路径" stroke="url(#linearGradient-1)"></path>
                    <line x1="15.7571192" y1="8" x2="2.09092647e-07" y2="8" id="路径-4" stroke="url(#linearGradient-2)"></line>
                </g>
                <g id="编组-11" transform="translate(2.000000, 20.000000)" stroke-linecap="round" stroke-width="1.5">
                    <path d="M20.5,7.5 C22.4329966,7.5 24,5.93299662 24,4 C24,2.06700338 22.4329966,0.5 20.5,0.5 C18.5670034,0.5 17,2.06700338 17,4" id="路径" stroke="url(#linearGradient-1)" transform="translate(20.500000, 4.000000) scale(1, -1) translate(-20.500000, -4.000000) "></path>
                    <line x1="20.7571192" y1="0.5" x2="2.09092663e-07" y2="0.5" id="路径-4" stroke="url(#linearGradient-3)" transform="translate(10.378560, 0.500000) scale(1, -1) translate(-10.378560, -0.500000) "></line>
                </g>
                <g id="编组-12" transform="translate(8.000000, 10.000000)" stroke-linecap="round" stroke-width="1.5">
                    <path d="M19,6 C20.6568542,6 22,4.65685425 22,3 C22,1.34314575 20.6568542,0 19,0 C17.3431458,0 16,1.34314575 16,3" id="路径" stroke="url(#linearGradient-1)"></path>
                    <line x1="19" y1="6" x2="-2.84772206e-14" y2="6" id="路径-4" stroke="url(#linearGradient-4)"></line>
                </g>
            </g>
        </g>
    </g>
</svg>